<?xml version="1.0" standalone="no"?>
<!DOCTYPE svg PUBLIC "-//W3C//DTD SVG 1.1//EN" "http://www.w3.org/Graphics/SVG/1.1/DTD/svg11.dtd" >
<svg xmlns="http://www.w3.org/2000/svg">
<metadata>Generated by IcoMoon</metadata>
<defs>
<font id="icomoon" horiz-adv-x="1024">
<font-face units-per-em="1024" ascent="960" descent="-64" />
<missing-glyph horiz-adv-x="1024" />
<glyph unicode="&#x20;" horiz-adv-x="512" d="" />
<glyph unicode="&#xe900;" glyph-name="avatar" d="M508.289 408.24c1.060 0 2.121 0 3.393 0 0.424 0 0.848 0 1.272 0 0.636 0 1.484 0 2.121 0 62.131 1.060 112.388 22.902 149.497 64.676 81.64 92.031 68.069 249.797 66.584 264.853-5.301 113.024-58.738 167.097-102.845 192.331-32.868 18.873-71.25 29.051-114.084 29.899h-1.484c-0.212 0-0.636 0-0.848 0h-1.272c-23.538 0-69.765-3.817-114.084-29.051-44.531-25.234-98.816-79.308-104.118-193.18-1.484-15.056-15.056-172.823 66.584-264.853 36.897-41.774 87.153-63.616 149.285-64.676zM349.038 732.468c0 0.636 0.212 1.272 0.212 1.696 6.998 152.041 114.932 168.369 161.16 168.369h0.848c0.424 0 1.060 0 1.696 0 57.254-1.272 154.586-24.598 161.16-168.369 0-0.636 0-1.272 0.212-1.696 0.212-1.484 15.056-145.68-52.377-221.595-26.719-30.111-62.343-44.955-109.207-45.379-0.424 0-0.636 0-1.060 0v0c-0.424 0-0.636 0-1.060 0-46.651 0.424-82.488 15.268-108.995 45.379-67.221 75.491-52.801 220.322-52.589 221.595zM947.449 146.568c0 0.212 0 0.424 0 0.636 0 1.696-0.212 3.393-0.212 5.301-1.272 41.986-4.029 140.166-96.060 171.55-0.636 0.212-1.484 0.424-2.121 0.636-95.636 24.386-175.155 79.52-176.003 80.156-12.935 9.118-30.748 5.937-39.866-6.998s-5.937-30.748 6.998-39.866c3.605-2.545 88.002-61.283 193.604-88.426 49.408-17.6 54.922-70.401 56.406-118.749 0-1.908 0-3.605 0.212-5.301 0.212-19.085-1.060-48.56-4.453-65.524-34.352-19.509-169.006-86.941-373.848-86.941-203.994 0-339.496 67.645-374.060 87.153-3.393 16.964-4.877 46.439-4.453 65.524 0 1.696 0.212 3.393 0.212 5.301 1.484 48.348 6.998 101.149 56.406 118.749 105.602 27.143 189.999 86.093 193.604 88.426 12.935 9.118 16.116 26.931 6.998 39.866s-26.931 16.116-39.866 6.998c-0.848-0.636-79.944-55.77-176.003-80.156-0.848-0.212-1.484-0.424-2.121-0.636-92.031-31.596-94.787-129.776-96.060-171.55 0-1.908 0-3.605-0.212-5.301 0-0.212 0-0.424 0-0.636-0.212-11.027-0.424-67.645 10.815-96.060 2.121-5.513 5.937-10.179 11.027-13.359 6.362-4.241 158.827-101.361 413.926-101.361s407.564 97.332 413.926 101.361c4.877 3.181 8.906 7.846 11.027 13.359 10.603 28.203 10.391 84.821 10.179 95.848z" />
<glyph unicode="&#xe901;" glyph-name="clock" d="M983.127 647.31c-53.988 125.867-145.729 217.406-272.647 271.536-63.434 27.054-129.892 40.873-199.322 40.873-69.418 0-135.386-13.688-198.75-40.873-125.867-53.986-218.015-145.467-272.098-271.536-27.101-63.16-40.311-129.33-40.311-198.748 0-69.431 13.21-136.15 40.311-199.324 54.083-126.069 146.243-218.099 272.098-272.098 63.376-27.185 129.33-40.86 198.75-40.86s135.887 13.819 199.312 40.86c126.917 54.131 218.659 146.243 272.658 272.098 27.183 63.376 40.871 129.892 40.871 199.324 0 69.418-13.677 135.374-40.873 198.748zM901.394 222.364c-40.192-68.928-95.254-123.61-164.601-164.039-68.928-40.192-144.451-60.461-225.623-60.461-61.022 0-119.249 11.753-174.682 35.832-55.432 24.067-103.292 55.708-143.328 95.732-40.036 40.036-71.903 88.364-95.731 143.89-23.758 55.324-35.271 114.209-35.271 175.243 0 81.184 19.946 156.324 59.912 225.061 40.108 68.988 95.182 123.728 164.039 164.041 68.846 40.311 143.879 60.473 225.049 60.473 81.184 0 156.694-20.281 225.623-60.473 69.348-40.431 124.291-95.17 164.601-164.039 40.311-68.857 60.461-143.879 60.461-225.061 0-81.185-20.018-156.838-60.449-226.199zM543.634 453.040v290.015c0 17.354-15.121 31.352-32.477 31.352-16.232 0-30.792-13.998-30.792-31.352v-294.492c0-0.562 1.123-2.808 1.123-4.481-1.123-10.079 1.685-18.477 8.398-25.202l167.409-167.397c11.202-11.202 31.913-11.202 43.107 0 12.874 12.875 12.027 31.557 0 43.669l-156.767 157.888z" />
<glyph unicode="&#xe902;" d="M999.601 744c0 33.4-27 60.401-60.401 60.401h-856.6c-33.4 0-60.401-27-60.401-60.401v-592c0-33.4 27-60.401 60.401-60.401h858.6c33.4 0 60.401 27 58.4 62.6v589.801zM960 539.599h-896v60.401h896v-60.401zM61.8 741.8c0 12.6 10.4 20.8 20.8 20.8v2.001h856.6c12.6 0 20.8-10.4 20.8-20.8v-104.2h-898.2v102.199zM960 152c0-12.6-10.4-20.8-20.8-20.8h-856.6c-12.6 0-20.8 10.4-20.8 20.8v345.999h898.2v-345.999zM336 427.2c0-10.78-8.74-19.52-19.52-19.52h-195.2c-10.78 0-19.52 8.74-19.52 19.52v0c0 10.78 8.74 19.52 19.52 19.52h195.2c10.78 0 19.52-8.74 19.52-19.52v0zM603.52 427.2c0-10.78-8.74-19.52-19.52-19.52h-195.2c-10.78 0-19.52 8.74-19.52 19.52v0c0 10.78 8.74 19.52 19.52 19.52h195.2c10.78 0 19.52-8.74 19.52-19.52v0zM456.32 349.12c0-10.78-8.74-19.52-19.52-19.52h-315.52c-10.78 0-19.52 8.74-19.52 19.52v0c0 10.78 8.74 19.52 19.52 19.52h315.52c10.78 0 19.52-8.74 19.52-19.52v0zM598.4 349.44c0-10.25-8.31-18.56-18.56-18.56h-85.76c-10.25 0-18.56 8.31-18.56 18.56v0c0 10.25 8.31 18.56 18.56 18.56h85.76c10.25 0 18.56-8.31 18.56-18.56v0zM901.76 179.84h-259.84v154.88h259.84v-154.88z" />
<glyph unicode="&#xe903;" d="M668.8 315.946h206.080v-115.626h-206.080v115.626z" />
<glyph unicode="&#xe904;" glyph-name="diamond" d="M1023.761 615.787c0.119 0.7 0.188 1.383 0.222 2.1 0.034 0.836 0.017 1.639-0.051 2.475-0.068 0.717-0.171 1.4-0.341 2.1-0.188 0.819-0.444 1.605-0.751 2.39-0.154 0.41-0.188 0.836-0.376 1.229-0.137 0.29-0.376 0.512-0.529 0.802s-0.222 0.597-0.393 0.888l-170.706 273.13c-0.785 1.246-1.707 2.373-2.748 3.363-0.017 0.017-0.034 0.017-0.051 0.034-1.468 1.383-3.209 2.373-5.070 3.158-0.239 0.102-0.393 0.307-0.649 0.41-0.188 0.068-0.393 0.034-0.58 0.085-1.724 0.58-3.499 0.973-5.36 0.973h-648.685c-1.844 0-3.602-0.393-5.292-0.956-0.188-0.051-0.376-0.017-0.546-0.085-0.256-0.085-0.41-0.29-0.649-0.393-1.775-0.734-3.448-1.69-4.899-2.987-0.085-0.085-0.205-0.137-0.29-0.205-1.058-0.99-1.997-2.134-2.783-3.38l-170.706-273.13c-0.171-0.273-0.239-0.597-0.393-0.888s-0.393-0.512-0.529-0.802c-0.188-0.393-0.222-0.819-0.393-1.229-0.307-0.785-0.563-1.57-0.751-2.39-0.154-0.7-0.273-1.4-0.341-2.117-0.119-0.836-0.137-1.656-0.102-2.475 0.034-0.717 0.102-1.4 0.222-2.1 0.137-0.819 0.358-1.622 0.632-2.424 0.222-0.666 0.461-1.314 0.768-1.963 0.154-0.307 0.205-0.649 0.376-0.956 0.273-0.495 0.683-0.871 0.99-1.332 0.239-0.358 0.376-0.751 0.666-1.093l494.861-614.304c0.034-0.051 0.068-0.085 0.102-0.119l0.085-0.119c0.051-0.068 0.137-0.085 0.188-0.154 1.4-1.69 3.141-2.97 5.036-3.995 0.512-0.273 0.99-0.512 1.519-0.734 2.066-0.871 4.251-1.485 6.538-1.485 1.946 0 3.909 0.341 5.855 1.041 0.29 0.102 0.478 0.341 0.768 0.461 0.871 0.358 1.553 0.939 2.339 1.434 1.297 0.819 2.509 1.673 3.517 2.783 0.239 0.256 0.597 0.376 0.819 0.649l495.049 614.543c0.273 0.341 0.41 0.751 0.666 1.093 0.324 0.461 0.717 0.836 0.99 1.332 0.171 0.307 0.222 0.649 0.376 0.956 0.307 0.649 0.546 1.28 0.768 1.963 0.239 0.802 0.478 1.588 0.615 2.424zM547.883 874.766h263.895l-82.963-222.687-180.932 222.687zM698.053 635.777h-372.089l186.036 228.969 186.053-228.969zM293.991 650.594l-81.922 224.172h264.066l-182.144-224.172zM710.020 601.636l-201.007-539.535-197.149 539.535h398.156zM840.234 853.377l136.002-217.617h-217.070l81.069 217.617zM183.612 853.155l79.43-217.378h-215.278l135.848 217.378zM275.52 601.636l185.029-506.384-407.92 506.384h222.891zM552.918 82.176l193.53 519.46h224.923l-418.453-519.46z" />
<glyph unicode="&#xe905;" glyph-name="envelope" d="M898.993 837.641h-773.774c-69.072 0-125.219-56.147-125.219-125.219v-528.844c0-69.072 56.147-125.219 125.219-125.219h773.562c69.072 0 125.219 56.147 125.219 125.219v528.632c0.212 69.072-55.935 125.431-125.007 125.431zM967.005 183.578c0-37.502-30.51-68.012-68.012-68.012h-773.774c-37.502 0-68.012 30.51-68.012 68.012v528.632c0 37.502 30.51 68.012 68.012 68.012h773.562c37.502 0 68.012-30.51 68.012-68.012v-528.632h0.212zM645.8 454.568l250.438 224.589c11.653 10.594 12.713 28.603 2.119 40.468-10.594 11.653-28.603 12.713-40.468 2.119l-345.359-309.976-67.377 60.173c-0.212 0.212-0.424 0.424-0.424 0.636-1.483 1.483-2.966 2.754-4.661 4.026l-274.168 245.353c-11.865 10.594-29.875 9.534-40.468-2.331s-9.534-29.875 2.331-40.468l253.405-226.496-252.345-236.242c-11.441-10.806-12.077-28.815-1.271-40.468 5.721-5.933 13.348-9.111 20.976-9.111 6.992 0 13.984 2.543 19.493 7.628l256.159 239.633 69.496-62.080c5.509-4.873 12.289-7.204 19.069-7.204s13.772 2.543 19.069 7.416l71.402 63.987 254.676-241.963c5.509-5.297 12.713-7.839 19.705-7.839 7.628 0 15.043 2.966 20.764 8.899 10.806 11.441 10.382 29.663-1.059 40.468l-251.498 238.785z" />
<glyph unicode="&#xe906;" glyph-name="facebook" d="M512 896c247 0 448-201 448-448s-201-448-448-448-448 201-448 448 201 448 448 448zM512 960c-282.75 0-512-229.25-512-512s229.25-512 512-512 512 229.25 512 512-229.25 512-512 512v0zM658.168 739.878l-75.762 0.122c-85.124 0-140.132-56.436-140.132-143.786v-66.292h-76.174c-6.584 0-11.914-5.336-11.914-11.918v-96.054c0-6.582 5.336-11.912 11.914-11.912h76.174v-242.372c0-6.582 5.33-11.912 11.914-11.912h99.394c6.578 0 11.908 5.336 11.908 11.912v242.372h89.070c6.588 0 11.918 5.33 11.918 11.912l0.036 96.054c0 3.16-1.258 6.188-3.49 8.422-2.23 2.238-5.27 3.496-8.428 3.496h-89.106v56.198c0 27.010 6.434 40.722 41.62 40.722l51.046 0.018c6.578 0 11.908 5.338 11.908 11.916v89.19c0 6.57-5.33 11.9-11.896 11.912z" />
<glyph unicode="&#xe907;" d="M512.188 691.414l46.958-93.412 115.507-15.066-81.233-85.375 20.968-112.495-102.198 56.247-101.699-56.247 21.092 110.486-84.37 84.371 117.516 15.066z" />
<glyph unicode="&#xe908;" d="M852.48 265.071l20.401 89.373 57.157 71.674c2.86 3.583 3.93 8.27 2.908 12.74l-20.403 89.372 20.401 89.376c1.021 4.47-0.049 9.158-2.908 12.74l-57.157 71.672-20.401 89.376c-1.020 4.47-4.019 8.228-8.148 10.216l-82.593 39.779-57.165 71.674c-2.857 3.584-7.19 5.67-11.771 5.67h-91.675l-82.593 39.777c-4.131 1.988-8.938 1.988-13.069 0l-82.595-39.776h-91.675c-4.582 0-8.915-2.085-11.773-5.67l-57.158-71.672-82.592-39.779c-4.131-1.988-7.127-5.746-8.147-10.216l-20.401-89.376-57.16-71.672c-2.858-3.581-3.928-8.27-2.908-12.74l20.401-89.376-20.401-89.375c-1.020-4.47 0.050-9.158 2.908-12.74l57.157-71.674 20.401-89.375c1.020-4.468 4.018-8.228 8.147-10.214l74.061-35.666-101.865-153.258c-6.934-10.431 1.742-24.652 14.168-23.306l112.248 12.186 32.227-108.211c3.564-11.971 20.040-14.465 26.973-4.037l118.972 179.003 49.015-23.602c4.093-1.971 8.974-1.971 13.068 0l49.014 23.602 118.972-179.003c6.93-10.432 23.41-7.932 26.976 4.037l32.227 108.211 112.246-12.186c12.424-1.352 21.1 12.877 14.167 23.306l-101.866 153.258 74.060 35.667c4.132 1.985 7.131 5.745 8.151 10.214zM330.193-13.994l-26.632 89.422c-2.075 6.967-8.817 11.48-16.058 10.671l-92.76-10.070 81.098 122.016 43.578-54.646c2.858-3.584 7.192-5.67 11.773-5.67h91.674l6.189-2.98-98.862-148.744zM829.251 76.036l-92.759 10.066c-7.236 0.797-13.984-3.707-16.058-10.673l-26.63-89.422-98.865 148.746 6.186 2.98h91.675c4.581 0 8.914 2.086 11.771 5.67l43.58 54.646 81.1-122.013zM824.73 278.842l-79.159-38.122c-2.040-0.98-3.827-2.41-5.238-4.179l-54.78-68.691h-87.86c-2.263 0-4.497-0.509-6.534-1.492l-79.158-38.12-79.159 38.12c-2.040 0.983-4.27 1.492-6.533 1.492h-87.858l-54.778 68.691c-1.412 1.769-3.201 3.199-5.24 4.179l-79.158 38.122-19.549 85.654c-0.504 2.207-1.498 4.268-2.908 6.038l-54.778 68.695 19.549 85.655c0.502 2.207 0.502 4.497 0 6.702l-19.551 85.656 54.778 68.692c1.412 1.768 2.404 3.832 2.908 6.038l19.549 85.656 79.158 38.122c2.038 0.98 3.83 2.41 5.24 4.178l54.778 68.692h87.858c2.263 0 4.497 0.509 6.533 1.492l79.159 38.12 79.16-38.121c2.039-0.982 4.27-1.492 6.534-1.492h87.86l54.78-68.692c1.411-1.768 3.2-3.197 5.238-4.178l79.159-38.122 19.549-85.656c0.502-2.205 1.496-4.268 2.907-6.038l54.779-68.692-19.549-85.656c-0.506-2.204-0.506-4.495 0-6.702l19.549-85.655-54.78-68.695c-1.411-1.77-2.405-3.831-2.907-6.038l-19.549-85.652z" />
<glyph unicode="&#xe909;" d="M766.747 747.816c-5.434 6.295-14.944 7-21.243 1.565-6.295-5.434-6.998-14.94-1.564-21.24 47.886-55.506 74.257-126.502 74.257-199.91 0-168.84-137.361-306.202-306.2-306.202-168.841 0-306.202 137.361-306.202 306.202s137.362 306.202 306.203 306.202c59.937 0 117.975-17.309 167.844-50.058 6.954-4.568 16.288-2.634 20.854 4.319 4.566 6.954 2.633 16.288-4.317 20.854-54.793 35.981-118.548 55.004-184.376 55.004-185.446 0-336.319-150.875-336.319-336.319s150.872-336.319 336.319-336.319c185.444 0 336.319 150.874 336.319 336.319-0.003 80.627-28.973 158.61-81.573 219.584z" />
<glyph unicode="&#xe90a;" d="M698.944 588.928c-1.231 3.77-4.462 6.463-8.388 7.078l-116.963 16.621-52.632 105.805c-1.77 3.54-5.386 5.772-9.311 5.772v0c-3.923 0-7.542-2.231-9.311-5.848l-51.941-106.112-116.963-17.391c-3.924-0.614-7.156-3.309-8.388-7.078-1.23-3.77-0.154-7.924 2.693-10.619l84.874-82.259-19.622-116.502c-0.692-3.923 0.923-7.849 4.156-10.158 1.769-1.307 3.924-2.001 6.079-2.001 1.692 0 3.309 0.385 4.847 1.231l104.42 55.327 104.727-54.711c1.539-0.769 3.155-1.153 4.772-1.153v0c5.693 0 10.387 4.694 10.387 10.387 0 0.847-0.077 1.617-0.307 2.386l-20.238 115.808 84.337 82.72c3.002 2.771 4.003 6.926 2.771 10.698zM593.523 506.514c-2.463-2.385-3.54-5.847-2.924-9.233l17.622-101.036-90.954 47.478c-3.002 1.617-6.618 1.539-9.696 0l-90.646-48.017 17.006 101.189c0.539 3.386-0.539 6.771-3.002 9.156l-73.563 71.409 101.495 15.082c3.387 0.539 6.31 2.616 7.772 5.693l45.093 92.109 45.708-91.877c1.539-3.078 4.462-5.155 7.849-5.695l101.573-14.467-73.334-71.793z" />
<glyph unicode="&#xe90b;" glyph-name="instagram" d="M512 896c247 0 448-201 448-448s-201-448-448-448c-247 0-448 201-448 448s201 448 448 448zM512 960c-282.75 0-512-229.25-512-512s229.25-512 512-512c282.75 0 512 229.25 512 512s-229.25 512-512 512v0zM645.368 738.178h-266.736c-86.464 0-156.81-70.346-156.81-156.81v-266.734c0-86.464 70.346-156.81 156.81-156.81h266.734c86.464 0 156.812 70.346 156.812 156.81v266.734c0.002 86.464-70.346 156.81-156.81 156.81zM755.292 314.632c0-60.612-49.312-109.924-109.926-109.924h-266.734c-60.612 0-109.924 49.31-109.924 109.924v266.736c0 60.612 49.31 109.924 109.924 109.924h266.734c60.614 0 109.926-49.31 109.926-109.924v-266.736zM640.73 467.102c-4.126 27.824-16.82 53.042-36.71 72.934-19.886 19.886-45.106 32.582-72.93 36.708-12.668 1.878-25.512 1.878-38.178 0-34.386-5.1-64.728-23.284-85.436-51.202-20.708-27.92-29.306-62.234-24.206-96.618s23.284-64.724 51.204-85.436c22.666-16.81 49.542-25.638 77.252-25.638 6.422 0 12.892 0.474 19.364 1.436 34.386 5.1 64.726 23.284 85.434 51.202 20.71 27.918 29.308 62.228 24.206 96.614zM524.21 365.664c-21.996-3.268-43.946 2.236-61.806 15.484-17.86 13.246-29.494 32.656-32.754 54.652-3.262 21.996 2.236 43.946 15.484 61.806 13.25 17.862 32.658 29.492 54.654 32.754 4.052 0.602 8.13 0.902 12.21 0.902s8.162-0.3 12.212-0.902c36.536-5.418 64.722-33.604 70.14-70.138 6.732-45.404-24.728-87.826-70.14-94.558zM682.19 618.174c-4.368 4.366-10.41 6.868-16.576 6.868-6.168 0-12.21-2.5-16.578-6.868s-6.868-10.398-6.868-16.578c0-6.18 2.5-12.21 6.868-16.578 4.368-4.364 10.41-6.868 16.578-6.868 6.166 0 12.208 2.5 16.576 6.868s6.868 10.41 6.868 16.578c-0.002 6.17-2.502 12.212-6.868 16.578z" />
<glyph unicode="&#xe90c;" glyph-name="like" d="M1022.306 640.139c-14.947 164.519-131.395 283.881-277.126 283.881-97.089 0-185.985-52.247-236.006-135.983-49.568 84.82-134.821 136.003-230.354 136.003-145.712 0-262.179-119.362-277.106-283.881-1.182-7.267-6.026-45.512 8.705-107.881 21.23-89.96 70.266-171.786 141.773-236.577l356.747-323.741 362.871 323.721c71.507 64.811 120.544 146.618 141.773 236.597 14.731 62.349 9.886 100.594 8.724 107.861zM975.239 541.298c-19.378-82.161-64.299-157.016-129.78-216.332l-336.285-300.030-330.515 299.951c-65.599 59.435-110.5 134.27-129.898 216.431-13.943 59.021-8.212 92.362-8.192 92.579l0.295 1.989c12.801 144.136 112.863 248.768 237.956 248.768 92.303 0 173.558-56.717 212.118-147.996l18.138-42.991 18.138 42.991c37.949 89.881 123.498 147.977 217.987 147.977 125.073 0 225.155-104.631 238.212-250.638 0.039-0.315 5.77-33.676-8.173-92.697zM315.075 804.343c-108.59 0-196.934-88.345-196.934-196.934 0-10.89 8.803-19.693 19.693-19.693s19.693 8.803 19.693 19.693c0 86.868 70.68 157.548 157.548 157.548 10.89 0 19.693 8.803 19.693 19.693s-8.823 19.693-19.693 19.693z" />
<glyph unicode="&#xe90d;" glyph-name="ok" d="M512 896c247 0 448-201 448-448s-201-448-448-448-448 201-448 448 201 448 448 448zM512 960c-282.75 0-512-229.25-512-512s229.25-512 512-512 512 229.25 512 512-229.25 512-512 512v0zM491.412 314.968c-50.466 5.268-95.966 17.69-134.922 48.164-4.834 3.788-9.826 7.442-14.234 11.678-17.050 16.372-18.768 35.126-5.28 54.454 11.544 16.546 30.92 20.966 51.060 11.47 3.902-1.844 7.616-4.138 11.172-6.604 72.604-49.886 172.338-51.266 245.208-2.242 7.224 5.532 14.94 10.046 23.88 12.348 17.398 4.47 33.618-1.922 42.952-17.134 10.658-17.376 10.526-34.342-2.616-47.838-20.154-20.68-44.388-35.646-71.32-46.092-25.458-9.876-53.348-14.84-80.96-18.142 4.168-4.536 6.132-6.758 8.736-9.38 37.484-37.658 75.132-75.162 112.49-112.94 12.73-12.876 15.386-28.832 8.382-43.8-7.664-16.366-24.818-27.13-41.636-25.978-10.654 0.738-18.968 6.038-26.354 13.482-28.282 28.462-57.104 56.398-84.812 85.4-8.070 8.436-11.946 6.836-19.064-0.486-28.46-29.294-57.376-58.136-86.47-86.818-13.062-12.876-28.608-15.202-43.754-7.842-16.106 7.808-26.352 24.246-25.56 40.764 0.544 11.174 6.040 19.708 13.708 27.366 37.096 37.038 74.088 74.174 111.1 111.28 2.442 2.466 4.726 5.082 8.294 8.89zM522.152 443.992c-90.028 0.304-163.85 74.94-163.324 165.114 0.518 91.16 74.388 164.628 165.3 164.376 91.1-0.248 164.214-74.768 163.758-166.88-0.46-89.986-74.794-162.924-165.734-162.61zM603.97 608.886c-0.16 44.766-35.812 80.414-80.494 80.454-45.060 0.046-81.040-36.246-80.686-81.426 0.334-44.602 36.292-79.986 81.1-79.828 44.666 0.16 80.234 36.034 80.080 80.8z" />
<glyph unicode="&#xe90e;" glyph-name="phone-call" d="M809.283 325.668c-20.964 21.828-46.25 33.499-73.049 33.499-26.583 0-52.085-11.454-73.914-33.283l-68.295-68.078c-5.619 3.026-11.238 5.835-16.641 8.645-7.78 3.89-15.129 7.564-21.396 11.454-63.972 40.631-122.109 93.581-177.869 162.092-27.015 34.147-45.17 62.892-58.353 92.068 17.722 16.209 34.147 33.067 50.14 49.276 6.051 6.051 12.103 12.319 18.154 18.37 45.386 45.386 45.386 104.171 0 149.557l-59.001 59.001c-6.7 6.7-13.616 13.616-20.099 20.532-12.967 13.4-26.583 27.231-40.631 40.199-20.964 20.748-46.034 31.77-72.401 31.77s-51.869-11.022-73.482-31.77c-0.216-0.216-0.216-0.216-0.432-0.432l-73.482-74.13c-27.664-27.664-43.441-61.379-46.899-100.497-5.187-63.108 13.4-121.893 27.664-160.363 35.012-94.445 87.313-181.975 165.333-275.772 94.662-113.032 208.558-202.29 338.664-265.182 49.708-23.557 116.058-51.437 190.188-56.192 4.539-0.216 9.293-0.432 13.616-0.432 49.924 0 91.852 17.938 124.703 53.598 0.216 0.432 0.648 0.648 0.864 1.081 11.238 13.616 24.206 25.935 37.821 39.118 9.293 8.861 18.803 18.154 28.096 27.88 21.396 22.261 32.634 48.195 32.634 74.778 0 26.799-11.454 52.518-33.283 74.13l-118.651 119.083zM886.654 98.092c-0.216 0-0.216-0.216 0 0-8.429-9.077-17.074-17.29-26.367-26.367-14.048-13.4-28.312-27.448-41.712-43.224-21.828-23.341-47.547-34.363-81.262-34.363-3.242 0-6.7 0-9.942 0.216-64.188 4.106-123.838 29.176-168.575 50.573-122.325 59.217-229.738 143.289-318.996 249.837-73.698 88.826-122.974 170.953-155.608 259.131-20.099 53.814-27.448 95.742-24.206 135.293 2.161 25.286 11.887 46.25 29.825 64.188l73.698 73.698c10.59 9.942 21.828 15.345 32.851 15.345 13.616 0 24.638-8.213 31.554-15.129 0.216-0.216 0.432-0.432 0.648-0.648 13.183-12.319 25.719-25.070 38.902-38.686 6.7-6.916 13.616-13.832 20.532-20.964l59.001-59.001c22.909-22.909 22.909-44.089 0-66.998-6.268-6.268-12.319-12.535-18.587-18.587-18.154-18.587-35.444-35.876-54.247-52.734-0.432-0.432-0.864-0.648-1.081-1.081-18.587-18.587-15.129-36.741-11.238-49.060 0.216-0.648 0.432-1.297 0.648-1.945 15.345-37.173 36.957-72.185 69.807-113.896l0.216-0.216c59.65-73.482 122.541-130.754 191.917-174.627 8.861-5.619 17.938-10.158 26.583-14.48 7.78-3.89 15.129-7.564 21.396-11.454 0.864-0.432 1.729-1.081 2.593-1.513 7.348-3.674 14.264-5.403 21.396-5.403 17.938 0 29.176 11.238 32.851 14.912l73.914 73.914c7.348 7.348 19.019 16.209 32.634 16.209 13.4 0 24.422-8.429 31.122-15.777 0.216-0.216 0.216-0.216 0.432-0.432l119.083-119.083c22.261-22.044 22.261-44.737 0.216-67.646zM553.394 716.417c56.624-9.509 108.061-36.309 149.124-77.372s67.646-92.5 77.372-149.124c2.377-14.264 14.696-24.206 28.744-24.206 1.729 0 3.242 0.216 4.971 0.432 15.993 2.593 26.583 17.722 23.99 33.715-11.671 68.511-44.089 130.97-93.581 180.462s-111.951 81.91-180.462 93.581c-15.993 2.593-30.905-7.997-33.715-23.773s7.564-31.122 23.557-33.715zM1022.811 508.292c-19.235 112.816-72.401 215.474-154.095 297.168s-184.352 134.86-297.168 154.095c-15.777 2.81-30.689-7.997-33.499-23.773-2.593-15.993 7.997-30.905 23.99-33.715 100.713-17.074 192.565-64.837 265.614-137.67 73.049-73.049 120.596-164.901 137.67-265.614 2.377-14.264 14.696-24.206 28.744-24.206 1.729 0 3.242 0.216 4.971 0.432 15.777 2.377 26.583 17.506 23.773 33.283z" />
<glyph unicode="&#xe90f;" glyph-name="placeholder" d="M512 960c-198.504 0-360-161.496-360-360 0-67.068 18.578-132.52 53.738-189.304l285.77-460.514c5.474-8.822 15.118-14.182 25.49-14.182 0.080 0 0.158 0 0.238 0 10.462 0.082 20.126 5.608 25.5 14.584l278.486 464.976c33.22 55.584 50.778 119.362 50.778 184.44 0 198.504-161.496 360-360 360zM769.732 446.364l-253.188-422.736-259.81 418.68c-29.266 47.264-45.134 101.792-45.134 157.692 0 165.42 134.98 300.4 300.4 300.4s300.2-134.98 300.2-300.4c0-54.242-14.822-107.376-42.468-153.636zM512 780c-99.252 0-180-80.748-180-180 0-98.618 79.434-180 180-180 101.806 0 180 82.466 180 180 0 99.252-80.748 180-180 180zM512 479.6c-66.514 0-120.4 54.066-120.4 120.4 0 66.168 54.232 120.4 120.4 120.4s120.2-54.232 120.2-120.4c0-65.366-52.632-120.4-120.2-120.4z" />
<glyph unicode="&#xe910;" glyph-name="security" d="M941.113 696.337c-0.526 27.647-1.027 53.764-1.027 79.031 0 19.795-16.043 35.843-35.843 35.843-153.287 0-269.995 44.053-367.277 138.639-13.916 13.534-36.062 13.529-49.974 0-97.272-94.586-213.961-138.639-367.239-138.639-19.795 0-35.843-16.048-35.843-35.843 0-25.271-0.497-51.398-1.027-79.050-4.913-257.283-11.642-609.645 417.356-758.344 3.804-1.319 7.771-1.979 11.737-1.979s7.938 0.66 11.737 1.979c429.031 148.704 422.312 501.075 417.399 758.363zM511.981 9.874c-367.922 133.655-362.359 426.441-357.423 685.077 0.296 15.522 0.583 30.567 0.784 45.315 143.562 6.060 258.363 49.563 356.639 135.174 98.285-85.611 213.106-129.119 356.677-135.174 0.201-14.743 0.487-29.778 0.784-45.291 4.932-258.645 10.49-551.441-357.461-685.101zM635.409 572.508l-172.996-172.986-73.821 73.821c-13.998 13.993-36.693 13.993-50.686 0-13.998-14.003-13.998-36.693 0-50.691l99.165-99.165c6.996-6.996 16.172-10.495 25.343-10.495s18.347 3.498 25.343 10.495l198.334 198.329c14.003 13.998 14.003 36.693 0.005 50.686-13.993 13.998-36.689 14.003-50.686 0.005z" />
<glyph unicode="&#xe911;" glyph-name="shopping-bag" d="M921.6 74.837l-58.634 660.26c-1.256 14.658-13.611 25.757-28.061 25.757h-120.618c-1.675 110.148-91.72 199.146-202.287 199.146s-200.612-88.998-202.287-199.146h-120.618c-14.658 0-26.804-11.099-28.061-25.757l-58.634-660.26c0-0.838-0.209-1.675-0.209-2.513 0-75.177 68.895-136.324 153.705-136.324h512.209c84.81 0 153.705 61.147 153.705 136.324 0 0.838 0 1.675-0.209 2.513zM512 903.46c79.365 0 144.072-63.66 145.747-142.606h-291.494c1.675 78.946 66.382 142.606 145.747 142.606zM768.105-7.46h-512.209c-53.189 0-96.327 35.18-97.165 78.528l56.121 633.037h94.652v-85.857c0-15.706 12.564-28.27 28.27-28.27s28.27 12.564 28.27 28.27v85.857h291.704v-85.857c0-15.706 12.564-28.27 28.27-28.27s28.27 12.564 28.27 28.27v85.857h94.652l56.33-633.037c-0.838-43.347-44.185-78.528-97.165-78.528z" />
<glyph unicode="&#xe912;" glyph-name="telegram" d="M512 896c247 0 448-201 448-448s-201-448-448-448-448 201-448 448 201 448 448 448zM512 960c-282.75 0-512-229.25-512-512s229.25-512 512-512 512 229.25 512 512-229.25 512-512 512v0zM185.794 442.738l138.636-51.742 53.66-172.57c3.434-11.054 16.95-15.138 25.92-7.804l77.278 62.998c8.1 6.6 19.638 6.928 28.104 0.784l139.38-101.194c9.598-6.974 23.194-1.716 25.602 9.878l102.104 491.142c2.626 12.666-9.822 23.234-21.88 18.57l-568.966-219.49c-14.040-5.414-13.92-25.294 0.162-30.572zM369.444 418.54l270.946 166.876c4.872 2.992 9.878-3.592 5.698-7.472l-223.612-207.856c-7.858-7.314-12.928-17.108-14.364-27.732l-7.618-56.45c-1.008-7.538-11.596-8.288-13.676-0.99l-29.296 102.934c-3.354 11.74 1.536 24.278 11.922 30.69z" />
<glyph unicode="&#xe913;" d="M740.48 535.68l153.6 3.2 87.68-133.544-30.72-16.856-190.72 8.32-23.68 15.36z" />
<glyph unicode="&#xe914;" d="M238.934 285.866c-56.474 0-102.4-45.926-102.4-102.4s45.926-102.4 102.4-102.4c56.475 0 102.4 45.926 102.4 102.4s-45.928 102.4-102.4 102.4zM238.934 115.2c-37.65 0-68.266 30.618-68.266 68.266 0 37.65 30.618 68.266 68.266 68.266s68.266-30.619 68.266-68.266c0-37.649-30.618-68.266-68.266-68.266z" />
<glyph unicode="&#xe915;" d="M819.2 285.866c-56.474 0-102.4-45.926-102.4-102.4s45.926-102.4 102.4-102.4 102.4 45.926 102.4 102.4-45.926 102.4-102.4 102.4zM819.2 115.2c-37.65 0-68.266 30.618-68.266 68.266 0 37.65 30.619 68.266 68.266 68.266 37.65 0 68.266-30.619 68.266-68.266 0-37.649-30.616-68.266-68.266-68.266z" />
<glyph unicode="&#xe916;" d="M1021.286 380.433l-153.6 238.934c-3.14 4.882-8.55 7.834-14.354 7.834h-187.732c-9.437 0-17.066-7.647-17.066-17.066v-426.666c0-9.437 7.629-17.065 17.066-17.065h68.266v34.134h-51.2v392.53h161.348l145.852-226.884v-165.65h-85.334v-34.132h102.4c9.437 0 17.065 7.628 17.065 17.066v187.734c0.003 3.26-0.934 6.486-2.711 9.233z" />
<glyph unicode="&#xe917;" d="M750.934 405.334v119.466h136.534v34.134h-153.6c-9.437 0-17.065-7.645-17.065-17.066v-153.6c0-9.437 7.628-17.065 17.065-17.065h256v34.134l-238.934-0.003z" />
<glyph unicode="&#xe918;" d="M665.6 746.666h-648.534c-9.42 0-17.066-7.647-17.066-17.066v-546.134c0-9.439 7.647-17.066 17.066-17.066h136.534v34.134h-119.466v512h614.4v-512h-324.268v-34.134h341.334c9.437 0 17.066 7.628 17.066 17.066v546.134c0 9.42-7.629 17.066-17.066 17.066z" />
<glyph unicode="&#xe919;" d="M17.066 268.8h102.4v-34.134h-102.4v34.134z" />
<glyph unicode="&#xe91a;" d="M358.4 268.8h290.134v-34.134h-290.134v34.134z" />
<glyph unicode="&#xe91b;" d="M938.666 268.8h68.266v-34.134h-68.266v34.134z" />
<glyph unicode="&#xe91c;" d="M68.266 678.4h597.334v-34.134h-597.334v34.134z" />
<glyph unicode="&#xe91d;" d="M221.866 200.534h34.134v-34.134h-34.134v34.134z" />
<glyph unicode="&#xe91e;" d="M802.134 200.534h34.134v-34.134h-34.134v34.134z" />
<glyph unicode="&#xe91f;" d="M68.266 814.934h238.934v-34.134h-238.934v34.134z" />
<glyph unicode="&#xe920;" d="M0 814.934h34.134v-34.134h-34.134v34.134z" />
</font>
</defs>
</svg>
