<svg xmlns:dc="http://purl.org/dc/elements/1.1/" xmlns:cc="http://creativecommons.org/ns#" xmlns:rdf="http://www.w3.org/1999/02/22-rdf-syntax-ns#" xmlns:svg="http://www.w3.org/2000/svg" xmlns="http://www.w3.org/2000/svg" xmlns:xlink="http://www.w3.org/1999/xlink" xmlns:sodipodi="http://sodipodi.sourceforge.net/DTD/sodipodi-0.dtd" xmlns:inkscape="http://www.inkscape.org/namespaces/inkscape" version="1.1" id="svg2" width="551" height="424" viewBox="0 0 551 424" sodipodi:docname="Forma 111.svg" inkscape:version="0.92.2 (5c3e80d, 2017-08-06)">
  
  
  
  
  <path style="fill: #9a4781;" d="M 53.130856,422.459 C 45.105181,420.71756 35.509441,416.25267 27.482771,410.52496 16.681616,402.81741 8.0274153,390.6839 3.214551,376.5 L 0.5,368.5 0.22088494,215.5 C -0.08862643,45.837925 -0.38057594,54.11713 6.4266097,39.515926 13.312032,24.746906 23.793654,14.089395 38.5,6.9043191 c 15.071079,-7.36327333 -1.960866,-6.86959185 237,-6.86959185 238.72568,0 221.81426,-0.48505211 237,6.79761515 19.1733,9.1949896 32.72996,26.7089056 36.96604,47.7565946 1.42241,7.067483 1.56243,24.225913 1.31308,160.911063 l -0.27912,153 -2.71455,8 c -6.41349,18.90106 -18.54924,32.65289 -36.31414,41.14997 -14.06437,6.7271 1.26578,6.32171 -236.47131,6.25317 C 95.534837,423.85139 58.434983,423.60991 53.130856,422.459 Z M 499.10667,389.26732 c 7.83422,-3.83332 13.99538,-10.11931 17.73292,-18.09217 L 519.5,365.5 V 212 58.5 l -2.26912,-4.920341 C 514.13988,46.877151 509.02819,40.868277 503.27907,37.179076 493.00633,30.58708 508.2278,31 275.5,31 42.772199,31 57.99367,30.58708 47.720935,37.179076 41.971814,40.868277 36.860123,46.877151 33.769119,53.579659 L 31.5,58.5 V 212 365.5 l 2.635165,5.62001 c 4.788188,10.21176 11.961772,16.52133 22.701207,19.96701 5.409574,1.73562 15.307898,1.80807 220.663628,1.61506 L 492.5,392.5 Z M 72.555726,362.73299 c -6.889691,-3.90244 -9.654081,-12.2529 -6.542838,-19.7641 0.995201,-2.40263 69.063502,-67.75456 132.826762,-127.52611 L 205.17931,209.5 135.76688,146.78668 C 97.590049,112.29436 65.824704,82.910684 65.177229,81.489629 63.200258,77.15065 63.71537,69.712752 66.25,65.999494 70.671483,59.521979 79.266518,57.20358 85.711529,60.75 c 1.749179,0.9625 45.087251,39.69814 96.306821,86.0792 51.21957,46.38106 93.6564,84.1161 94.30407,83.85564 0.64767,-0.26045 42.12758,-37.68489 92.17758,-83.16542 50.05,-45.48053 92.46537,-83.833669 94.25638,-85.229202 6.92205,-5.393571 18.39661,-2.991049 22.41963,4.69418 2.38082,4.548113 2.34968,11.666794 -0.0679,15.515602 -1.03641,1.65 -32.27461,30.45 -69.41822,64 -37.14361,33.55 -67.56895,61.3156 -67.61187,61.70134 -0.0429,0.38573 30.72212,30.27005 68.36675,66.4096 41.62656,39.96227 68.9467,66.91915 69.72576,68.79866 5.45168,13.15244 -8.67688,26.58994 -20.86075,19.8404 -1.73745,-0.9625 -33.83051,-31.225 -71.31791,-67.25 -37.48741,-36.025 -68.5745,-65.65105 -69.08243,-65.83568 -0.50793,-0.18462 -9.67208,7.5925 -20.36478,17.28248 -10.69269,9.68998 -20.70203,18.27577 -22.24297,19.07952 -3.54857,1.85092 -8.45178,1.87487 -12.58383,0.0615 -1.76983,-0.77672 -11.70665,-9.12213 -22.08182,-18.54536 -10.37517,-9.42322 -19.23757,-17.00023 -19.69423,-16.83778 -0.45665,0.16244 -31.73826,29.54535 -69.51468,65.29535 -37.77641,35.75 -70.089014,65.76864 -71.805772,66.70808 -4.294843,2.35023 -9.380891,2.17844 -14.065652,-0.47509 z" id="path12" inkscape:connector-curvature="0"/>
</svg>