<svg xmlns:dc="http://purl.org/dc/elements/1.1/" xmlns:cc="http://creativecommons.org/ns#" xmlns:rdf="http://www.w3.org/1999/02/22-rdf-syntax-ns#" xmlns:svg="http://www.w3.org/2000/svg" xmlns="http://www.w3.org/2000/svg" xmlns:xlink="http://www.w3.org/1999/xlink" xmlns:sodipodi="http://sodipodi.sourceforge.net/DTD/sodipodi-0.dtd" xmlns:inkscape="http://www.inkscape.org/namespaces/inkscape" version="1.1" id="svg2" width="436" height="622" viewBox="0 0 436 622" sodipodi:docname="Forma 11.svg" inkscape:version="0.92.2 (5c3e80d, 2017-08-06)">
  <path style="fill: #9a4781;" d="M 131.47358,496.86069 C 84.188111,428.57439 42.307825,368.01961 38.406277,362.29453 6.4981387,315.47291 -6.3080072,250.42893 3.9736814,187.40717 11.999972,138.2099 33.670384,94.15847 65.269488,62.805574 c 84.167642,-83.511838 221.293382,-83.511838 305.461022,0 26.26556,26.060912 46.24912,61.909436 56.37979,101.139796 C 444.93413,232.96698 433.67493,308.96616 397.76871,362 379.15342,389.49498 218.79674,620.53844 218.17609,620.75881 217.77518,620.90115 178.75905,565.147 131.47358,496.86069 Z M 299.64393,464 c 44.36882,-64.075 82.69535,-119.875 85.17008,-124 12.14043,-20.2363 21.1927,-46.31545 25.85951,-74.5 2.58965,-15.63983 2.589,-55.36713 -10e-4,-71 C 402.49599,145.15197 383.95709,107.60532 352.86708,77.42756 332.23871,57.404468 309.66699,43.308543 283.27923,33.970288 230.65601,15.34768 169.20333,20.702949 121.84962,48.038005 101.98384,59.505581 79.64625,78.657862 66.448379,95.539105 45.507049,122.32492 31.748295,155.42395 25.311869,194.5 c -2.529547,15.35708 -2.521368,57.44192 0.01399,72 4.679556,26.87009 12.981605,51.21327 23.942221,70.20314 6.61225,11.45608 167.84979,244.4258 168.91611,244.06435 C 218.61822,580.62037 255.27511,528.075 299.64393,464 Z M 205.07519,293.9745 c -30.75809,-6.46394 -54.48771,-29.33068 -62.19273,-59.93118 -3.05108,-12.11736 -2.3737,-30.99771 1.52635,-42.54332 4.25005,-12.58177 10.02965,-21.86394 19.59178,-31.4649 C 180.0092,143.9615 197.4818,136.67183 220,136.67183 c 22.5182,0 39.9908,7.28967 55.99941,23.36327 9.56213,9.60096 15.34173,18.88313 19.59178,31.4649 3.90005,11.54561 4.57743,30.42596 1.52635,42.54332 -7.04174,27.96628 -27.01129,49.15687 -54.61754,57.95712 -7.88364,2.51313 -29.44735,3.65056 -37.42481,1.97406 z M 235,270.32313 c 17.66188,-4.82495 32.68099,-18.92581 38.51032,-36.15585 7.03282,-20.78724 1.93465,-42.79127 -13.48765,-58.21358 -22.38398,-22.38398 -57.71063,-22.4166 -79.93704,-0.0738 -11.48311,11.54324 -16.52369,23.99825 -16.43908,40.62011 0.0827,16.24196 5.45851,28.52237 17.58204,40.16398 14.53531,13.95753 34.30045,18.97832 53.77141,13.65915 z" id="path12" inkscape:connector-curvature="0"/>
</svg>