<svg xmlns:dc="http://purl.org/dc/elements/1.1/" xmlns:cc="http://creativecommons.org/ns#" xmlns:rdf="http://www.w3.org/1999/02/22-rdf-syntax-ns#" xmlns:svg="http://www.w3.org/2000/svg" xmlns="http://www.w3.org/2000/svg" xmlns:xlink="http://www.w3.org/1999/xlink" xmlns:sodipodi="http://sodipodi.sourceforge.net/DTD/sodipodi-0.dtd" version="1.1" id="svg2" width="435" height="434" viewBox="0 0 435 434" sodipodi:docname="Forma 1.svg" xmlns:inkscape="http://www.inkscape.org/namespaces/inkscape" inkscape:version="0.92.2 (5c3e80d, 2017-08-06)">
  
  
  
  
  <g id="g12">
    <path style="fill: #9a4781;" d="m 122.36081,433.01717 c -6.39374,-0.96011 -14.52448,-5.30062 -18.57855,-9.91794 -1.69402,-1.92938 -4.250535,-6.0035 -5.681147,-9.0536 L 95.5,408.5 95.222769,221.5 C 95.052567,106.69417 95.312894,32.110504 95.897076,28.31064 97.697516,16.599528 103.26311,8.9649442 113.77111,3.7919985 L 120.45827,0.5 H 217.97913 315.5 l 5.54563,2.601113 c 7.74383,3.6321501 12.35836,8.018544 15.90754,15.121083 L 340,24.319445 V 217 409.68056 l -3.04683,6.09724 c -3.54918,7.10254 -8.16371,11.48894 -15.90754,15.12109 L 315.5,433.5 l -94,0.14445 c -51.7,0.0794 -96.31264,-0.20283 -99.13919,-0.62728 z m 193.38471,-14.55531 c 4.95886,-2.07194 7.18895,-4.20404 9.37375,-8.96186 1.64756,-3.58789 1.83907,-7.01355 1.85877,-33.25 L 327,347 H 218 109 v 29.03212 c 0,23.86404 0.27381,29.68743 1.53814,32.7134 2.07194,4.95886 4.20404,7.18895 8.96186,9.37375 3.79054,1.74062 8.93707,1.83796 98.28212,1.85877 82.61664,0.0192 94.7376,-0.16835 97.9634,-1.51618 z m -106.54056,-8.29643 c -6.74404,-2.40541 -11.90494,-6.57368 -15.70496,-12.68431 -2.51381,-4.04233 -3.05647,-6.06627 -3.34843,-12.48845 -0.45107,-9.92217 2.06758,-16.20619 8.99003,-22.43007 11.01048,-9.89937 26.29174,-10.09495 37.21903,-0.47636 15.16271,13.34675 12.14161,37.64989 -5.76956,46.41301 -7.18344,3.51452 -14.58678,4.09131 -21.38611,1.66618 z m 16.89716,-14.43536 c 12.19765,-8.14856 6.53039,-27.11469 -8.10212,-27.11469 -14.63251,0 -20.29977,18.96613 -8.10212,27.11469 C 212.2281,397.28676 214.7739,398 218,398 c 3.2261,0 5.7719,-0.71324 8.10212,-2.26993 z M 327,195 V 57 H 218 109 V 195 333 H 218 327 Z M 326.978,36.25 C 326.94514,24.63972 323.8443,18.922024 315.74552,15.538138 312.52123,14.190946 300.38702,14 218,14 135.61298,14 123.47877,14.190946 120.25448,15.538138 112.1557,18.922024 109.05486,24.63972 109.02196,36.25 L 109,44 H 218 327 Z M 186.31537,35.027084 C 181.67974,33.087066 180.80305,28.106037 184.45455,24.454545 186.86335,22.045745 187.21829,22 203.5,22 c 16.45094,0 16.61243,0.02152 19.14123,2.550323 1.98455,1.984545 2.40356,3.149235 1.88874,5.25 -1.3228,5.397858 -2.27259,5.681668 -19.81301,5.920354 -8.91933,0.121372 -17.20004,-0.190744 -18.40159,-0.693593 z M 235.75,34.025107 C 229.42347,29.032288 233.96976,22 243.52407,22 c 6.58001,0 9.80926,2.268806 9.80926,6.891787 0,4.635186 -2.33041,6.408769 -9.05304,6.8899 -4.80985,0.344235 -6.24198,0.04933 -8.53029,-1.75658 z M 23.337584,148.38017 C 0.85599279,124.2387 -4.7364568,87.227836 9.5431842,57.088754 15.388302,44.751856 26.382275,31 30.399938,31 c 0.731689,0 2.516031,0.932661 3.965203,2.07258 4.155296,3.268556 3.522071,6.79717 -2.443063,13.613864 C 24.935097,54.67086 18.355576,68.325808 16.352066,79 c -4.014873,21.39023 1.950332,43.19672 16.397934,59.94454 4.944692,5.73194 5.632746,9.97354 2.027494,12.49876 -3.871903,2.71198 -6.789323,1.93082 -11.43991,-3.06313 z m 377.884926,3.06313 c -3.66146,-2.56459 -2.92385,-6.80339 2.23458,-12.84139 14.36162,-16.81046 20.29135,-38.737933 16.1247,-59.627345 -2.13241,-10.690767 -8.7671,-24.48871 -15.53401,-32.305531 -5.93507,-6.855923 -6.54761,-10.34411 -2.39065,-13.613971 4.44655,-3.49766 8.81455,-0.786295 16.82675,10.444937 10.52493,14.753506 14.56937,26.824275 15.24526,45.5 0.41172,11.37649 0.16132,14.86994 -1.59186,22.20926 -3.41677,14.30357 -10.23258,27.1772 -19.87556,37.54074 -4.29113,4.61179 -7.26449,5.33721 -11.03921,2.6933 z M 370.55032,136.64123 C 369.14765,135.23855 368,133.28076 368,132.29057 c 0,-0.99019 2.43276,-5.03417 5.40614,-8.98663 C 380.18366,114.2947 383.05733,106.83233 383.72803,96.5 384.57222,83.494972 380.50012,71.321126 372.03371,61.538951 369.81517,58.975626 368,55.859171 368,54.613494 368,51.629101 371.96289,48 375.22178,48 c 3.68416,0 10.84569,8.313582 15.83488,18.382186 11.09837,22.397449 7.57329,48.880914 -8.99077,67.546404 -4.69331,5.28875 -8.12993,6.09828 -11.51557,2.71264 z M 53.784263,131.86855 C 43.535891,120.95267 37.139851,101.89135 38.516259,86.367229 39.708044,72.925433 46.652684,57.548731 55.314964,49.17183 c 4.190265,-4.052216 7.97905,-4.028173 11.025264,0.06997 1.956713,2.632408 1.970025,2.871785 0.333671,6 -0.937394,1.792013 -3.46418,5.471831 -5.61508,8.177374 -5.644811,7.10041 -8.181605,14.371597 -8.799424,25.221698 -0.425026,7.464264 -0.137335,10.398958 1.568494,15.999998 2.14863,7.05496 6.255061,14.37559 11.299524,20.14393 3.516902,4.02156 3.625336,6.55337 0.418042,9.76066 -3.721011,3.72101 -6.307135,3.13239 -11.761192,-2.6769 z" id="path14" inkscape:connector-curvature="0"/>
  </g>
</svg>